<?xml version="1.0" standalone="no"?>
<!DOCTYPE svg PUBLIC "-//W3C//DTD SVG 20010904//EN"
 "http://www.w3.org/TR/2001/REC-SVG-20010904/DTD/svg10.dtd">
<svg version="1.0" xmlns="http://www.w3.org/2000/svg"
 width="512.000000pt" height="512.000000pt" viewBox="0 0 512.000000 512.000000"
 preserveAspectRatio="xMidYMid meet">

<g transform="translate(0.000000,512.000000) scale(0.100000,-0.100000)"
fill="#000000" stroke="none">
<path d="M972 5101 c-65 -23 -117 -63 -159 -124 -39 -59 -53 -121 -53 -247 l0
-99 -222 -3 c-202 -3 -227 -5 -269 -24 -56 -26 -114 -76 -145 -126 -55 -86
-55 -86 -52 -972 l3 -818 24 -19 c32 -26 73 -24 99 4 22 23 22 28 22 375 l0
352 1485 0 c1647 0 1538 -4 1550 64 8 41 -7 74 -41 86 -16 6 -592 10 -1505 10
l-1479 0 0 390 c0 428 1 434 59 483 48 40 90 47 289 47 l182 0 0 -120 c0 -150
19 -208 90 -280 103 -102 285 -122 398 -41 15 10 43 22 62 26 81 17 149 70
181 140 15 31 19 65 19 158 l0 117 364 0 364 0 5 -122 c3 -79 11 -140 22 -170
22 -62 80 -127 146 -163 49 -27 62 -30 149 -30 88 0 99 2 150 31 30 17 81 39
112 48 71 20 124 65 154 131 21 43 24 66 24 163 l0 112 364 0 364 0 4 -132 c3
-120 6 -138 30 -184 34 -65 114 -137 175 -158 112 -38 248 -9 327 69 76 76 90
119 94 273 l4 133 121 -3 121 -3 23 -34 c13 -18 27 -50 33 -70 6 -21 10 -195
10 -423 l0 -388 -585 0 c-413 0 -591 -3 -609 -11 -52 -24 -55 -98 -4 -133 20
-14 97 -16 725 -16 l703 0 -2 -1563 -3 -1563 -28 -43 c-51 -77 -67 -81 -413
-81 -290 0 -302 -1 -328 -21 -36 -29 -36 -80 1 -109 26 -21 34 -21 352 -18
l326 3 57 28 c67 33 121 90 157 166 l26 56 0 2060 0 2060 -29 62 c-33 72 -94
134 -164 166 -43 20 -66 22 -268 25 l-222 3 -4 127 c-3 101 -8 137 -25 173
-108 241 -442 251 -562 17 -32 -63 -34 -74 -39 -193 l-5 -125 -428 0 -429 0 0
114 c0 142 -17 199 -78 268 -25 27 -68 61 -96 76 -43 22 -64 26 -136 26 -72 0
-93 -4 -136 -26 -28 -15 -71 -49 -96 -76 -61 -69 -78 -126 -78 -268 l0 -114
-429 0 -428 0 -5 125 c-5 115 -7 129 -37 190 -71 143 -228 208 -379 156z m188
-159 c14 -11 35 -34 48 -52 22 -32 22 -38 22 -335 0 -297 0 -303 -23 -336 -65
-98 -201 -99 -267 -1 l-25 36 0 300 c0 296 0 302 23 338 31 50 94 81 152 73
25 -3 56 -13 70 -23z m1466 9 c23 -10 52 -34 65 -52 24 -34 24 -36 27 -331 3
-284 2 -299 -18 -338 -53 -105 -202 -115 -271 -19 l-24 34 0 312 c0 354 -2
346 85 391 53 27 82 27 136 3z m1503 -7 c15 -9 38 -32 51 -52 25 -35 25 -39
28 -291 4 -322 1 -351 -45 -402 -77 -85 -206 -69 -258 32 -21 40 -22 607 -1
647 18 34 53 68 86 81 32 14 104 6 139 -15z"/>
<path d="M620 2967 c-19 -12 -40 -34 -47 -47 -10 -19 -13 -133 -13 -463 0
-477 0 -474 57 -513 26 -18 55 -19 453 -22 474 -3 488 -2 527 57 23 33 23 39
23 309 l0 275 75 78 c85 90 95 120 49 166 -20 20 -31 24 -57 19 -17 -3 -39
-14 -49 -23 -17 -15 -18 -13 -18 46 0 56 -3 65 -34 99 l-34 37 -449 3 -449 3
-34 -24z m850 -230 l0 -102 -139 -139 c-119 -119 -141 -137 -157 -128 -11 6
-53 45 -94 86 -63 64 -80 76 -107 76 -43 0 -73 -30 -73 -73 0 -29 15 -48 128
-160 169 -167 155 -167 319 -5 l123 122 0 -167 0 -167 -380 0 -380 0 0 380 0
380 380 0 380 0 0 -103z"/>
<path d="M2094 2971 c-67 -41 -64 -20 -64 -512 l0 -446 23 -34 c13 -19 38 -39
57 -46 49 -17 851 -17 900 0 19 7 44 27 57 46 22 33 23 40 23 279 l0 246 110
111 c117 119 128 141 93 184 -10 11 -32 24 -50 27 -29 6 -38 1 -93 -51 l-60
-58 0 97 c0 96 0 97 -34 134 l-34 37 -449 3 c-427 2 -449 1 -479 -17z m846
-268 l0 -138 -107 -107 -107 -108 -92 90 c-94 93 -118 104 -165 79 -26 -13
-41 -53 -31 -80 5 -12 64 -77 133 -145 160 -159 156 -159 280 -37 l89 87 0
-132 0 -132 -380 0 -380 0 0 380 0 380 380 0 380 0 0 -137z"/>
<path d="M3564 2971 c-67 -41 -64 -20 -64 -512 l0 -446 23 -34 c39 -59 53 -60
527 -57 398 3 427 4 453 22 57 39 57 36 57 513 0 330 -3 444 -13 463 -7 13
-28 35 -46 47 l-34 23 -436 0 c-412 0 -438 -1 -467 -19z m846 -511 l0 -380
-380 0 -380 0 0 380 0 380 380 0 380 0 0 -380z"/>
<path d="M99 2451 l-24 -19 0 -1089 0 -1088 29 -62 c33 -72 94 -134 164 -166
l47 -22 1778 -3 1778 -2 24 24 c32 32 32 70 0 101 l-24 25 -1753 0 c-1680 0
-1755 1 -1793 19 -22 10 -48 28 -58 39 -47 52 -46 34 -47 1158 l0 1061 -23 21
c-29 27 -67 28 -98 3z"/>
<path d="M661 1613 c-36 -7 -70 -32 -87 -64 -19 -38 -21 -890 -1 -929 7 -13
28 -35 47 -47 l34 -24 449 3 449 3 34 37 34 38 0 447 c0 426 -1 450 -20 480
-35 59 -27 58 -490 59 -234 1 -436 0 -449 -3z m809 -533 l0 -380 -380 0 -380
0 0 380 0 380 380 0 380 0 0 -380z"/>
<path d="M2131 1613 c-14 -3 -35 -12 -48 -20 -53 -35 -53 -38 -53 -517 l0
-444 25 -30 c13 -16 37 -35 53 -41 20 -8 151 -11 471 -9 l443 3 34 37 34 38 0
445 c0 486 0 482 -57 521 -26 18 -53 19 -453 20 -234 1 -436 0 -449 -3z m809
-533 l0 -380 -380 0 -380 0 0 380 0 380 380 0 380 0 0 -380z"/>
<path d="M3593 1611 c-40 -10 -60 -26 -79 -62 -11 -23 -14 -106 -14 -474 l0
-445 34 -38 34 -37 461 0 461 0 32 33 33 32 3 447 c2 323 -1 455 -9 475 -6 16
-26 39 -43 51 -31 22 -34 22 -456 24 -234 1 -440 -2 -457 -6z m817 -531 l0
-380 -380 0 -380 0 0 380 0 380 380 0 380 0 0 -380z"/>
</g>
</svg>
